<svg xmlns="http://www.w3.org/2000/svg" width="16" height="16" viewBox="0 0 16 16" fill="none">
  <path d="M11.9998 5.33329H11.3332V3.99996C11.3332 2.15996 9.83984 0.666626 7.99984 0.666626C6.15984 0.666626 4.6665 2.15996 4.6665 3.99996V5.33329H3.99984C3.2665 5.33329 2.6665 5.93329 2.6665 6.66663V13.3333C2.6665 14.0666 3.2665 14.6666 3.99984 14.6666H11.9998C12.7332 14.6666 13.3332 14.0666 13.3332 13.3333V6.66663C13.3332 5.93329 12.7332 5.33329 11.9998 5.33329ZM7.99984 11.3333C7.2665 11.3333 6.6665 10.7333 6.6665 9.99996C6.6665 9.26663 7.2665 8.66663 7.99984 8.66663C8.73317 8.66663 9.33317 9.26663 9.33317 9.99996C9.33317 10.7333 8.73317 11.3333 7.99984 11.3333ZM10.0665 5.33329H5.93317V3.99996C5.93317 2.85996 6.85984 1.93329 7.99984 1.93329C9.13984 1.93329 10.0665 2.85996 10.0665 3.99996V5.33329Z" fill="#555555"/>
</svg>