<svg xmlns="http://www.w3.org/2000/svg" width="15" height="12" viewBox="0 0 15 12" fill="none">
<path d="M5.73598 1.51342C5.76083 1.50248 5.78803 1.49796 5.81508 1.50028C5.84213 1.5026 5.86817 1.51168 5.8908 1.52669C5.91342 1.5417 5.93191 1.56216 5.94457 1.58618C5.95723 1.6102 5.96364 1.63702 5.96323 1.66417V2.96129C5.96323 3.11048 6.02249 3.25355 6.12798 3.35904C6.23347 3.46453 6.37654 3.5238 6.52573 3.5238C7.2761 3.5238 8.79035 3.52942 10.2382 4.44854C11.3452 5.15055 12.477 6.42854 13.1576 8.80904C12.0101 7.70317 10.6995 7.10355 9.55198 6.78517C8.84665 6.59036 8.12179 6.4749 7.39085 6.44092C7.09166 6.42778 6.79197 6.43078 6.4931 6.44992H6.47848L6.47285 6.45105H6.47173L6.52573 7.01129L6.46948 6.45105C6.33063 6.465 6.20193 6.53006 6.10837 6.6336C6.01482 6.73714 5.96308 6.87175 5.96323 7.01129V8.30842C5.96323 8.42992 5.83948 8.50642 5.73598 8.45917L1.25398 5.15954C1.23876 5.14826 1.22299 5.13775 1.20673 5.12804C1.18226 5.11334 1.16202 5.09257 1.14797 5.06773C1.13392 5.04289 1.12653 5.01483 1.12653 4.9863C1.12653 4.95776 1.13392 4.9297 1.14797 4.90486C1.16202 4.88002 1.18226 4.85924 1.20673 4.84454C1.223 4.83485 1.23877 4.82434 1.25398 4.81305L5.73598 1.51342ZM7.08823 7.55804C7.16473 7.55804 7.2491 7.56142 7.3391 7.5648C7.82735 7.5873 8.50235 7.66155 9.2516 7.86967C10.7434 8.28367 12.5096 9.22192 13.6841 11.3347C13.7476 11.4487 13.8488 11.5371 13.9704 11.5847C14.0919 11.6323 14.2262 11.6362 14.3503 11.5956C14.4744 11.5551 14.5805 11.4726 14.6504 11.3624C14.7204 11.2522 14.7498 11.1211 14.7337 10.9915C14.2117 6.81779 12.612 4.62179 10.8412 3.49904C9.4406 2.61029 7.99835 2.43929 7.08823 2.40667V1.66417C7.08833 1.4325 7.0259 1.20509 6.90752 1.00595C6.78913 0.806804 6.61919 0.643308 6.41562 0.53271C6.21206 0.422112 5.98241 0.368514 5.75091 0.377571C5.51942 0.386628 5.29466 0.458005 5.10035 0.584169L0.607101 3.89167C0.421341 4.00762 0.268145 4.16894 0.161936 4.36044C0.0557275 4.55194 0 4.76732 0 4.9863C0 5.20527 0.0557275 5.42065 0.161936 5.61215C0.268145 5.80365 0.421341 5.96497 0.607101 6.08092L5.10035 9.38842C5.29466 9.51458 5.51942 9.58596 5.75091 9.59502C5.98241 9.60408 6.21206 9.55048 6.41562 9.43988C6.61919 9.32928 6.78913 9.16579 6.90752 8.96664C7.0259 8.7675 7.08833 8.54009 7.08823 8.30842V7.55804Z" fill="#030391"/>
</svg>