<svg xmlns="http://www.w3.org/2000/svg" width="16" height="16" viewBox="0 0 16 16" fill="none">
<mask id="mask0_2204_2836" style="mask-type:alpha" maskUnits="userSpaceOnUse" x="0" y="0" width="16" height="16">
<rect width="16" height="16" fill="#D9D9D9"/>
</mask>
<g mask="url(#mask0_2204_2836)">
<path d="M6.00065 14C5.81176 14 5.65354 13.936 5.52598 13.808C5.39798 13.6804 5.33398 13.5222 5.33398 13.3333V12.6667H2.66732C2.30065 12.6667 1.98687 12.5362 1.72598 12.2753C1.46465 12.014 1.33398 11.7 1.33398 11.3333V3.33333C1.33398 2.96667 1.46465 2.65267 1.72598 2.39133C1.98687 2.13044 2.30065 2 2.66732 2H13.334C13.7007 2 14.0147 2.13044 14.276 2.39133C14.5369 2.65267 14.6673 2.96667 14.6673 3.33333V11.3333C14.6673 11.7 14.5369 12.014 14.276 12.2753C14.0147 12.5362 13.7007 12.6667 13.334 12.6667H10.6673V13.3333C10.6673 13.5222 10.6035 13.6804 10.476 13.808C10.348 13.936 10.1895 14 10.0007 14H6.00065ZM2.66732 11.3333H13.334V3.33333H2.66732V11.3333Z" fill="#1F2029"/>
<path d="M6.35932 8.95017V5.38351C6.35932 5.11684 6.47598 4.9224 6.70932 4.80017C6.94265 4.67795 7.17043 4.68906 7.39265 4.83351L10.1593 6.60017C10.3704 6.7224 10.476 6.91128 10.476 7.16684C10.476 7.4224 10.3704 7.61129 10.1593 7.73351L7.39265 9.50017C7.17043 9.64462 6.94265 9.65573 6.70932 9.53351C6.47598 9.41128 6.35932 9.21684 6.35932 8.95017Z" fill="#1F2029"/>
</g>
</svg>